<?xml version="1.0" encoding="iso-8859-1"?>
<!-- Generator: Adobe Illustrator 19.0.0, SVG Export Plug-In . SVG Version: 6.00 Build 0)  -->
<svg version="1.1" id="Layer_1" xmlns="http://www.w3.org/2000/svg" xmlns:xlink="http://www.w3.org/1999/xlink" x="0px" y="0px"
	 viewBox="0 0 511.999 511.999" style="enable-background:new 0 0 511.999 511.999;" xml:space="preserve">
<path style="fill:#F3C324;" d="M282.79,352.83h102.83c30.575,0,57.028-21.281,63.577-51.147l0,0
	c5.981-27.278-6.106-55.33-30.038-69.721l-202.69-121.868V13.265c0,0-184.373,84.891-151.212,485.471h298.446
	C363.702,498.736,361.049,432.415,282.79,352.83z"/>
<path d="M425.994,220.594l-196.26-118.001V13.265c0-4.522-2.303-8.732-6.11-11.17c-3.808-2.438-8.594-2.771-12.702-0.879
	c-2.036,0.938-50.371,23.813-93.927,97.84c-25.117,42.69-43.661,93.921-55.117,152.275c-14.194,72.301-17.505,155.908-9.841,248.499
	c0.569,6.878,6.318,12.17,13.219,12.17h298.446c3.611,0,7.063-1.471,9.565-4.075s3.833-6.112,3.689-9.72
	c-0.106-2.646-3.132-60.047-64.093-132.112h72.758c17.801,0,35.242-6.145,49.112-17.303c13.869-11.158,23.608-26.879,27.42-44.268
	C469.358,271.659,454.827,237.931,425.994,220.594z M436.24,298.843c-5.174,23.597-26.464,40.723-50.62,40.723H282.79
	c-5.344,0-10.167,3.207-12.234,8.136c-2.067,4.929-0.971,10.617,2.776,14.428c52.709,53.605,69.485,100.909,74.752,123.343H77.53
	c-14.133-194.378,25.168-308.76,61.078-370.817c23.3-40.266,48.144-64.121,64.597-76.911v72.35c0,4.654,2.441,8.969,6.429,11.367
	l202.691,121.868C431.395,254.796,441.006,277.105,436.24,298.843z"/>
<path d="M174.604,131.372c-6.452-3.469-14.495-1.051-17.964,5.401c-28.445,52.906-61.034,149.534-54.755,309.427
	c0.28,7.143,6.16,12.743,13.244,12.743c0.175,0,0.353-0.003,0.529-0.011c7.321-0.288,13.02-6.454,12.734-13.775
	c-6.045-153.916,24.731-245.825,51.613-295.822C183.475,142.884,181.057,134.842,174.604,131.372z"/>
<circle cx="261.57" cy="232.125" r="13.264"/>
<g>
</g>
<g>
</g>
<g>
</g>
<g>
</g>
<g>
</g>
<g>
</g>
<g>
</g>
<g>
</g>
<g>
</g>
<g>
</g>
<g>
</g>
<g>
</g>
<g>
</g>
<g>
</g>
<g>
</g>
</svg>
