<?xml version="1.0" encoding="UTF-8"?>
<svg width="700pt" height="700pt" version="1.1" viewBox="0 0 700 700" xmlns="http://www.w3.org/2000/svg" xmlns:xlink="http://www.w3.org/1999/xlink">
 <defs>
  <symbol id="e" overflow="visible">
   <path d="m38.922-2.3281c-2.0117 1.043-4.1055 1.8281-6.2812 2.3594-2.168 0.53125-4.4336 0.79688-6.7969 0.79688-7.0547 0-12.641-1.9688-16.766-5.9062-4.125-3.9453-6.1875-9.2969-6.1875-16.047 0-6.7695 2.0625-12.125 6.1875-16.062 4.125-3.9453 9.7109-5.9219 16.766-5.9219 2.3633 0 4.6289 0.26562 6.7969 0.79688 2.1758 0.52344 4.2695 1.3047 6.2812 2.3438v8.7656c-2.0234-1.375-4.0156-2.3828-5.9844-3.0312-1.9688-0.64453-4.043-0.96875-6.2188-0.96875-3.8984 0-6.9609 1.25-9.1875 3.75-2.2305 2.4922-3.3438 5.9336-3.3438 10.328 0 4.3672 1.1133 7.7969 3.3438 10.297 2.2266 2.4922 5.2891 3.7344 9.1875 3.7344 2.1758 0 4.25-0.31641 6.2188-0.95312 1.9688-0.64453 3.9609-1.6602 5.9844-3.0469z"/>
  </symbol>
  <symbol id="a" overflow="visible">
   <path d="m15.969-40.797v9.0312h10.469v7.25h-10.469v13.484c0 1.4688 0.28906 2.4648 0.875 2.9844 0.59375 0.52344 1.7578 0.78125 3.5 0.78125h5.2188v7.2656h-8.7188c-4.0117 0-6.8555-0.83203-8.5312-2.5-1.668-1.6758-2.5-4.5195-2.5-8.5312v-13.484h-5.0469v-7.25h5.0469v-9.0312z"/>
  </symbol>
  <symbol id="d" overflow="visible">
   <path d="m26.5-27.125v-17.016h10.203v44.141h-10.203v-4.5938c-1.4062 1.875-2.9531 3.25-4.6406 4.125-1.6797 0.86328-3.6211 1.2969-5.8281 1.2969-3.918 0-7.1367-1.5547-9.6562-4.6719-2.5117-3.1133-3.7656-7.1172-3.7656-12.016 0-4.8945 1.2539-8.8945 3.7656-12 2.5195-3.1133 5.7383-4.6719 9.6562-4.6719 2.1875 0 4.125 0.44531 5.8125 1.3281 1.6953 0.875 3.25 2.2344 4.6562 4.0781zm-6.7031 20.578c2.1758 0 3.8359-0.78906 4.9844-2.375 1.1445-1.5938 1.7188-3.9062 1.7188-6.9375 0-3.0195-0.57422-5.3203-1.7188-6.9062-1.1484-1.5938-2.8086-2.3906-4.9844-2.3906-2.1562 0-3.8086 0.79688-4.9531 2.3906-1.1367 1.5859-1.7031 3.8867-1.7031 6.9062 0 3.0312 0.56641 5.3438 1.7031 6.9375 1.1445 1.5859 2.7969 2.375 4.9531 2.375z"/>
  </symbol>
  <symbol id="c" overflow="visible">
   <path d="m21.781-6.5469c2.1758 0 3.8359-0.78906 4.9844-2.375 1.1445-1.5938 1.7188-3.9062 1.7188-6.9375 0-3.0195-0.57422-5.3203-1.7188-6.9062-1.1484-1.5938-2.8086-2.3906-4.9844-2.3906-2.1797 0-3.8516 0.80469-5.0156 2.4062-1.1562 1.5938-1.7344 3.8906-1.7344 6.8906 0 3.0117 0.57812 5.3203 1.7344 6.9219 1.1641 1.5938 2.8359 2.3906 5.0156 2.3906zm-6.75-20.578c1.4062-1.8438 2.957-3.2031 4.6562-4.0781 1.6953-0.88281 3.6562-1.3281 5.875-1.3281 3.9062 0 7.1133 1.5586 9.625 4.6719 2.5195 3.1055 3.7812 7.1055 3.7812 12 0 4.8984-1.2617 8.9023-3.7812 12.016-2.5117 3.1172-5.7188 4.6719-9.625 4.6719-2.2188 0-4.1797-0.4375-5.875-1.3125-1.6992-0.88281-3.25-2.2539-4.6562-4.1094v4.5938h-10.156v-44.141h10.156z"/>
  </symbol>
  <symbol id="b" overflow="visible">
   <path d="m5.3281-42.344h18.125c5.3945 0 9.5312 1.1992 12.406 3.5938 2.8828 2.3867 4.3281 5.793 4.3281 10.219 0 4.4375-1.4453 7.8555-4.3281 10.25-2.875 2.3984-7.0117 3.5938-12.406 3.5938h-7.2031v14.688h-10.922zm10.922 7.9062v11.828h6.0469c2.1133 0 3.75-0.51562 4.9062-1.5469s1.7344-2.4883 1.7344-4.375c0-1.8945-0.57812-3.3516-1.7344-4.375-1.1562-1.0195-2.793-1.5312-4.9062-1.5312z"/>
  </symbol>
 </defs>
 <g>
  <path d="m312.65 224.23-39.387-5.4609v0.003907c-8.7109-1.3359-17.559 1.3555-24.051 7.3164-1.5156 1.1836-2.9492 2.4648-4.2969 3.8359-16.496 16.73-36.133 10.922-49.145-1.9766-12.457-12.441-18.598-29.855-16.703-47.359 1.8984-17.5 11.629-33.199 26.461-42.68 14.887-9.3359 27.543-21.828 37.062-36.598 13.801-21.77 35.566-37.281 60.648-43.223 4.2969-1.1602 5.1133-3.2539 4.5312-7.3203-1.7422-12.547-3.2539-25.094-4.8789-37.645l-0.003906 0.003906c-1.1406-3.9258 0.035156-8.1602 3.0352-10.941 3-2.7773 7.3125-3.625 11.141-2.1875 24.773 6.0391 45.359 23.195 55.766 46.473 2.4844 5.6211 7.6445 9.6016 13.711 10.574 37.391 8.1562 69.926 31.02 90.273 63.434 18.168 28.598 30.379 60.566 35.902 93.992 7.5039 38.789 10.043 78.379 7.5508 117.81-0.69531 11.617-1.7422 22.656-2.5547 33.926-0.57422 5.3516-4.1992 9.8867-9.2969 11.617-18.238 8.6641-34.164 21.523-46.473 37.527-5.9258 7.9023-4.4141 11.617 4.9961 14.988 9.1875 2.7109 18.098 6.2891 26.605 10.688 7.8672 4.457 13.691 11.797 16.25 20.465 2.5586 8.6719 1.6484 18-2.5391 26.012-0.26172 0.71484-0.57422 1.4141-0.92969 2.0898-1.8789 2.582-2.8906 5.6953-2.8906 8.8867 0 3.1953 1.0117 6.3047 2.8906 8.8906 4.8281 10.809 5.1641 23.098 0.92969 34.156-1.875 5.8477-5.7344 10.859-10.91 14.168-5.1758 3.3125-11.344 4.7109-17.438 3.957h-146.97-87.836c-8.1445 0.53906-16.133-2.4258-21.949-8.1523-5.8164-5.7305-8.9062-13.672-8.4883-21.824-1.3281-10.184 0.97656-20.508 6.5039-29.16 0.69531-0.8125 0-3.3711-0.69531-4.9961-2.5156-6-4.4609-12.227-5.8086-18.59-1.4961-8.2461 0.03125-16.754 4.2969-23.965 4.2695-7.2148 10.992-12.645 18.938-15.305 6.043-2.6719 12.664-4.0664 18.707-6.6211 2.7891-1.1602 6.9727-3.8359 6.9727-5.8086v-0.003907c0.24219-4.6836-2.8789-8.8789-7.4375-9.9883-9.2539-2.2266-18.336-5.1016-27.188-8.5977-4.3945-1.9844-8.0664-5.2852-10.504-9.4492-2.4336-4.1641-3.5156-8.9844-3.0898-13.789-0.96094-41.781 18.562-81.391 52.285-106.07 18.285-12.555 33.367-29.23 44.031-48.68 0.8125-1.3945 1.3945-3.1367 1.9766-4.418zm181.71 136.52c-1.5508-0.70312-3.1406-1.3242-4.7617-1.8594l-36.25-9.0625c-2.7539-0.55469-5.3398-1.75-7.5508-3.4844-3.8008-3.1562-4.6055-8.6719-1.8594-12.781 2.6641-4.875 8.5938-6.9375 13.711-4.7617l35.785 8.8281c4.0664 1.1602 6.043 0 6.043-4.2969v-13.012h-0.003906c0.30859-1.3867-0.003906-2.8359-0.85156-3.9766-0.84766-1.1367-2.1484-1.8477-3.5625-1.9492-14.289-3.2539-28.582-7.0859-42.871-10.688-3.0078-0.39062-5.7188-2.0156-7.4805-4.4844-1.7656-2.4688-2.4219-5.5586-1.8164-8.5312 0.57031-2.9219 2.3906-5.4531 4.9805-6.9258 2.5898-1.4727 5.6914-1.7461 8.4961-0.74219 7.0859 1.3945 13.941 3.3711 20.914 4.9961l22.191 5.1133c0-7.2031 0-13.246-1.1602-19.172-0.62109-1.9805-2.1211-3.5664-4.0664-4.2969-15.336-4.0664-30.789-7.7852-46.473-11.617-7.5508-1.8594-11.617-6.6211-9.7578-13.359 1.8594-6.7383 6.6211-9.1797 14.176-7.4375l38.457 9.293h5.2266-0.003906c-0.97656-5.1094-1.6758-10.266-2.0898-15.453 0-6.043-3.2539-7.7852-8.5977-8.9453-14.289-3.2539-28.582-6.8555-42.871-10.457-3.0508-0.39062-5.7812-2.0898-7.4766-4.6562-1.6953-2.5664-2.1914-5.7422-1.3555-8.7031 0.6875-2.8984 2.5742-5.3672 5.1914-6.7852 2.6172-1.4219 5.7148-1.6562 8.5195-0.65234 6.2734 1.3945 12.43 3.0195 18.707 4.5312l21.727 4.9961c-2.207-7.668-3.7188-13.824-5.9258-19.867h-0.003906c-1.0352-1.8633-2.8047-3.2109-4.8789-3.7188-14.641-3.8359-29.277-7.3203-43.918-11.617-2.9492-0.41406-5.5938-2.043-7.293-4.4922-1.6953-2.4492-2.2969-5.4922-1.6523-8.4023 1.8984-6.0078 8.2383-9.4102 14.293-7.668 8.25 1.8594 16.496 4.0664 24.746 6.043 1.8594 0 3.8359 0.69531 6.5078 1.1602h-0.003906c-0.28125-1.3828-0.66797-2.7422-1.1602-4.0664-18.18-39.32-55.23-66.59-98.176-72.266-5.2617-0.33594-9.8242-3.7578-11.617-8.7148-3.3359-7.0703-7.2227-13.867-11.617-20.332-5.0898-8.1523-12.324-14.746-20.914-19.055 0 4.6484 0 8.3633 0.92969 11.617 0 6.6211 1.625 13.129 1.9766 19.75 0 11.617-1.9766 14.289-13.129 17.777-8.7188 2.4297-17.262 5.457-25.562 9.0625-18.332 10.113-32.949 25.828-41.707 44.848-2.7227 4.875-6.7422 8.8984-11.621 11.617-7.2031 4.1836-14.406 8.4805-21.027 13.246-8.875 6.2266-14.656 15.961-15.879 26.734-1.2227 10.777 2.2344 21.559 9.4883 29.613 7.5508 8.0156 13.359 8.4805 21.027 0.8125h0.003906c13.504-13.379 33.074-18.637 51.469-13.824 11.926 3.7227 24.797 3.0234 36.246-1.9766 2.4297-1.0742 5.0234-1.7422 7.668-1.9727 9.5273-1.8594 15.105 3.2539 13.711 12.895-3.6836 20.359-12.66 39.395-26.023 55.188-11.719 12.949-24.762 24.633-38.922 34.855-24.328 20.117-38.773 49.77-39.617 81.328 0 5.4609 1.625 9.4102 7.0859 10.574v-0.003906c10.258 3.1484 20.805 5.25 31.484 6.2773 57.16 0.69531 114.21 0 171.25 0 2.8789-0.29688 5.5977-1.4727 7.7852-3.3711 7.9023-6.3906 15.336-13.359 23.238-19.75 5.9219-4.0664 11.848-7.5547 18.469-11.969zm-132.8 130.59h108.28c12.316 0 12.781 0 17.777-11.617v-1.1641c2.0703-3.7266 2.4258-8.1641 0.97656-12.172-1.4453-4.0078-4.5547-7.1953-8.5273-8.7383-4.9961-2.4414-10.574-3.8359-15.801-5.9258-5.3281-1.8164-10.496-4.0703-15.453-6.7383-3.8711-2.2109-7.0273-5.4922-9.0859-9.4453-2.0625-3.957-2.9414-8.4219-2.5312-12.863 0-4.9961-1.5117-5.8086-5.6914-5.8086h-41.129-100.38c-5.8086 0-7.5508 1.625-6.9727 7.4375v-0.003906c0.58984 4.4492-0.20703 8.9688-2.2891 12.941-2.0781 3.9727-5.3359 7.2031-9.3281 9.25-4.2031 2.1289-8.5508 3.9531-13.012 5.4609-5.7188 1.8828-11.305 4.1328-16.73 6.7383-3.5156 1.5938-6.2031 4.582-7.418 8.2461-1.2109 3.6641-0.83984 7.6641 1.0273 11.043 0.69531 1.9766 1.7422 3.8359 2.5547 5.6914 1.7461 4.8516 6.4766 7.9727 11.621 7.668 37.641-0.11719 74.938 0 112.11 0zm0 47.055h112.23c14.176 0 14.176 0 14.176-14.176 0-10.574-1.1602-11.617-11.617-11.617h-226.32c-15.105 0-15.105 0-14.988 15.57 0 8.7148 1.2773 9.9922 9.7578 9.9922z"/>
  <path d="m280 141.74c-5.0156-0.49609-9.2578-3.918-10.805-8.7148-1.3945-4.5117 0.60156-9.3828 4.7617-11.617 7.3242-3.8438 14.848-7.2969 22.539-10.34 4.4922-1.6211 9.4883 0.375 11.621 4.6484 1.4688 1.7773 2.1367 4.0781 1.8516 6.3672-0.28516 2.2852-1.5039 4.3555-3.3633 5.7148-8.1328 5.1133-17.543 9.293-26.605 13.941z"/>
  <use x="178.804688" y="734.273438" xlink:href="#e"/>
  <use x="328.683594" y="734.273438" xlink:href="#a"/>
  <use x="395.851563" y="734.273438" xlink:href="#d"/>
  <use x="457.660156" y="734.273438" xlink:href="#c"/>
  <use x="557.335938" y="734.273438" xlink:href="#b"/>
  <use x="639.109375" y="734.273438" xlink:href="#a"/>
 </g>
</svg>
